<?xml version="1.0" standalone="no"?>
<!DOCTYPE svg PUBLIC "-//W3C//DTD SVG 20010904//EN"
 "http://www.w3.org/TR/2001/REC-SVG-20010904/DTD/svg10.dtd">
<svg version="1.0" xmlns="http://www.w3.org/2000/svg"
 width="456.000000pt" height="456.000000pt" viewBox="0 0 456.000000 456.000000"
 preserveAspectRatio="xMidYMid meet">
<metadata>
Created by potrace 1.16, written by Peter Selinger 2001-2019
</metadata>
<g transform="translate(0.000000,456.000000) scale(0.100000,-0.100000)"
fill="#000000" stroke="none">
<path d="M126 2689 l-26 -31 0 -399 0 -399 28 -31 28 -32 474 1 475 0 23 27
23 27 -3 415 -3 415 -24 19 c-22 18 -45 19 -496 19 l-473 0 -26 -31z m491
-196 l44 -72 -43 -76 -43 -75 -89 2 -90 3 -43 72 -43 71 36 64 c55 94 47 89
142 86 l86 -3 43 -72z m290 -158 c24 -38 43 -74 43 -80 0 -6 -20 -45 -45 -88
l-45 -77 -85 0 -85 0 -23 38 c-13 20 -35 56 -48 80 l-24 42 35 67 c50 95 49
94 148 91 l87 -3 42 -70z m-319 -117 c6 -13 23 -41 37 -63 14 -22 27 -45 31
-51 3 -6 -16 -46 -42 -88 l-47 -76 -83 0 -82 0 -46 79 -47 79 41 63 c22 34 40
66 40 71 0 4 42 8 93 8 87 0 95 -2 105 -22z"/>
<path d="M375 2480 c-20 -33 -35 -64 -33 -68 2 -4 18 -33 36 -64 l34 -58 73 0
74 0 36 65 37 65 -34 58 -34 57 -76 3 -76 3 -37 -61z"/>
<path d="M665 2320 l-37 -60 38 -65 38 -65 71 0 70 0 36 64 37 64 -35 61 -34
61 -74 0 -74 0 -36 -60z"/>
<path d="M376 2159 c-20 -33 -36 -63 -36 -65 0 -3 17 -34 38 -69 l37 -65 71 0
71 0 34 62 c19 35 35 66 37 69 2 4 -13 34 -33 68 l-36 61 -73 0 -74 0 -36 -61z"/>
<path d="M2335 2444 c-12 -13 -15 -45 -15 -174 0 -87 3 -165 6 -174 3 -9 17
-16 30 -16 23 0 24 2 24 81 0 106 17 139 71 139 42 0 53 -24 59 -124 5 -85 7
-91 27 -94 29 -4 36 24 32 127 -5 102 -26 135 -89 139 -32 2 -51 -2 -72 -18
l-28 -21 0 70 c0 74 -15 95 -45 65z"/>
<path d="M4182 2448 c-14 -14 -17 -335 -3 -356 16 -26 46 -9 49 28 3 33 26 70
42 70 4 0 27 -25 50 -55 42 -54 72 -69 83 -40 4 8 -14 40 -40 75 l-46 61 43
44 c28 28 41 49 37 59 -10 26 -26 19 -95 -45 l-67 -61 -3 103 c-3 116 -17 150
-50 117z"/>
<path d="M1373 2434 c-18 -8 -16 -41 3 -48 9 -3 35 -6 60 -6 l43 0 3 -147 c3
-142 4 -148 24 -151 29 -4 34 18 34 170 l0 127 53 3 c48 3 52 5 52 28 l0 25
-130 2 c-71 1 -136 -1 -142 -3z"/>
<path d="M3294 2425 c-13 -32 4 -45 56 -45 l50 0 1 -42 c0 -24 0 -82 -1 -130
-1 -93 9 -128 39 -128 26 0 31 26 31 172 l0 127 53 3 c48 3 52 5 52 28 l0 25
-138 3 c-116 2 -138 0 -143 -13z"/>
<path d="M1751 2324 c-117 -98 -6 -297 136 -243 42 16 63 43 46 60 -8 8 -19 6
-41 -5 -44 -23 -79 -20 -107 9 -40 39 -32 45 63 45 114 0 133 18 97 94 -32 68
-136 89 -194 40z m132 -46 c33 -39 23 -48 -53 -48 -72 0 -83 7 -57 41 32 42
77 45 110 7z"/>
<path d="M2079 2333 c-31 -19 -54 -55 -64 -101 -5 -24 -1 -44 16 -78 39 -82
140 -106 206 -50 15 13 23 28 19 34 -9 14 -38 16 -51 3 -14 -13 -46 -16 -78
-8 -40 11 -62 66 -47 113 18 54 71 70 129 39 26 -13 30 -13 42 1 11 14 9 20
-14 40 -34 29 -117 33 -158 7z"/>
<path d="M2654 2337 c-2 -7 -3 -67 -2 -133 3 -113 4 -119 24 -122 27 -4 34 19
34 114 0 79 15 104 62 104 41 0 53 -25 58 -124 5 -85 7 -91 27 -94 29 -4 36
24 32 132 -4 73 -7 88 -28 110 -28 30 -93 36 -128 11 -18 -13 -22 -13 -33 0
-15 19 -39 19 -46 2z"/>
<path d="M3019 2333 c-34 -21 -57 -60 -64 -109 -17 -113 130 -192 228 -122 76
54 73 180 -5 228 -41 25 -122 26 -159 3z m136 -59 c31 -33 33 -82 5 -116 -60
-77 -177 2 -140 93 15 36 35 48 78 49 23 0 40 -8 57 -26z"/>
<path d="M3646 2328 c-8 -30 -8 -196 0 -226 5 -16 13 -22 28 -20 18 3 22 12
27 76 8 82 27 119 70 134 21 7 29 16 29 34 0 34 -43 33 -73 -2 l-22 -26 -5 24
c-8 32 -45 37 -54 6z"/>
<path d="M3908 2334 c-56 -30 -78 -126 -44 -192 17 -33 39 -49 89 -63 59 -17
149 26 127 61 -8 12 -14 12 -45 -3 -48 -23 -77 -21 -103 6 -38 40 -29 47 57
47 99 0 111 4 111 42 0 92 -107 149 -192 102z m95 -35 c27 -14 37 -28 37 -51
0 -16 -10 -18 -70 -18 -38 0 -70 3 -70 8 0 16 33 54 54 62 28 11 24 12 49 -1z"/>
</g>
</svg>
